<?xml version="1.0" standalone="no"?>
<!DOCTYPE svg PUBLIC "-//W3C//DTD SVG 20010904//EN"
 "http://www.w3.org/TR/2001/REC-SVG-20010904/DTD/svg10.dtd">
<svg version="1.0" xmlns="http://www.w3.org/2000/svg"
 width="320.000000pt" height="320.000000pt" viewBox="0 0 320.000000 320.000000"
 preserveAspectRatio="xMidYMid meet">
<metadata>
Created by potrace 1.14, written by Peter Selinger 2001-2017
</metadata>
<g transform="translate(0.000000,320.000000) scale(0.100000,-0.100000)"
fill="#000000" stroke="none">
<path d="M1560 2900 c-19 -5 -54 -7 -76 -4 -34 5 -44 2 -52 -13 -9 -15 -14
-16 -31 -5 -28 17 -38 15 -62 -9 -14 -14 -35 -22 -63 -23 -31 -1 -49 -8 -70
-29 -19 -20 -37 -27 -64 -27 -31 0 -41 -6 -60 -36 -20 -31 -28 -35 -51 -31
-34 7 -49 -3 -146 -95 -48 -45 -82 -89 -99 -123 -16 -34 -33 -56 -48 -60 -31
-10 -58 -35 -58 -54 0 -28 -77 -189 -109 -230 -28 -35 -30 -44 -25 -85 6 -37
4 -47 -10 -52 -14 -5 -16 -14 -11 -44 5 -31 2 -41 -19 -61 -14 -13 -26 -27
-26 -31 0 -16 43 -7 72 13 l29 21 6 -21 c3 -11 7 -21 9 -21 2 0 23 20 47 44
35 35 53 45 93 51 27 3 63 17 79 29 48 37 74 48 160 69 155 37 254 33 427 -19
106 -31 157 -56 195 -93 18 -17 39 -31 47 -31 23 0 27 -15 15 -49 -10 -28 -52
-61 -78 -61 -5 0 -17 8 -27 18 -10 9 -31 17 -47 17 -21 0 -31 5 -33 18 -4 28
-12 32 -38 18 -21 -12 -28 -10 -54 9 -38 28 -94 39 -199 40 -64 0 -89 -4 -116
-20 -28 -17 -38 -18 -65 -8 -27 10 -34 9 -51 -6 -15 -13 -30 -17 -53 -14 -43
7 -58 1 -58 -23 0 -12 -9 -21 -27 -25 -16 -3 -35 -8 -43 -10 -9 -2 -24 -18
-34 -34 -9 -17 -23 -29 -29 -28 -32 6 -130 -71 -169 -131 -39 -63 -68 -166
-70 -250 -1 -61 2 -76 26 -109 22 -33 25 -45 20 -84 -5 -39 -3 -48 19 -70 14
-14 36 -60 51 -108 34 -104 54 -142 106 -205 23 -27 53 -72 67 -100 28 -55 80
-115 100 -115 23 0 63 -31 63 -49 1 -38 85 -102 124 -93 12 3 32 -11 60 -41
37 -41 48 -46 121 -62 44 -9 90 -24 102 -31 13 -8 33 -12 47 -8 16 4 34 0 48
-10 17 -12 48 -16 134 -16 l112 0 12 30 c7 17 22 33 36 36 27 7 82 85 123 176
93 204 111 246 111 261 0 9 5 19 10 22 6 3 10 29 10 56 0 28 7 72 16 100 21
63 16 169 -9 197 -14 15 -16 30 -11 74 6 50 3 61 -39 149 -25 52 -61 128 -80
169 -20 42 -47 88 -61 103 -38 41 -34 68 18 104 81 57 224 249 258 348 10 28
17 67 18 88 0 29 4 37 18 37 11 0 24 11 30 25 18 38 86 30 119 -14 14 -20 8
-31 -19 -31 -16 0 -19 -4 -14 -22 4 -13 12 -45 19 -71 12 -48 13 -49 45 -44
38 7 40 2 10 -28 -13 -12 -31 -36 -40 -54 -14 -25 -22 -31 -37 -26 -42 13
-106 -43 -244 -213 l-59 -71 30 -43 c27 -40 70 -131 86 -185 6 -20 4 -23 -18
-23 -22 0 -26 -4 -26 -30 0 -26 6 -32 40 -46 28 -11 40 -22 40 -36 0 -16 -5
-19 -22 -15 l-23 6 0 -197 c0 -108 -3 -216 -7 -239 -8 -40 -7 -42 21 -48 26
-6 28 -8 17 -31 -8 -20 -17 -24 -36 -20 -23 4 -26 0 -41 -62 -9 -37 -28 -91
-43 -121 -32 -67 -32 -69 -1 -77 43 -11 29 -27 -18 -20 -40 6 -44 5 -55 -19
-22 -47 -15 -69 30 -99 43 -28 43 -28 94 -12 27 9 69 32 92 52 23 19 46 33 52
29 5 -3 10 -2 10 3 0 6 35 33 78 62 53 36 87 67 105 96 15 24 33 44 41 44 19
0 76 69 76 92 0 10 20 40 44 67 24 27 49 67 56 88 7 21 27 67 45 103 18 36 48
124 66 195 l34 130 -1 240 c-1 232 -5 313 -17 345 -3 8 -8 31 -10 50 -6 43
-90 266 -110 289 -7 9 -21 37 -31 63 -22 59 -113 189 -136 195 -10 3 -30 23
-44 44 -15 21 -32 39 -39 39 -7 0 -30 20 -50 45 -21 25 -43 45 -50 45 -6 0
-25 13 -42 30 -17 16 -41 31 -53 33 -12 2 -29 13 -38 25 -8 12 -24 22 -35 22
-11 0 -38 9 -60 20 -45 24 -240 75 -314 83 -28 3 -66 1 -85 -3z m-356 -1333
c125 -96 106 -284 -35 -362 -57 -30 -82 -31 -134 -4 -85 45 -117 97 -116 190
0 68 18 113 64 157 64 62 154 70 221 19z m447 -490 c51 -34 79 -82 79 -136 0
-134 -77 -231 -182 -231 -40 0 -52 5 -78 33 -81 83 -79 189 4 284 65 74 119
89 177 50z"/>
</g>
</svg>
