<?xml version="1.0" standalone="no"?>
<!DOCTYPE svg PUBLIC "-//W3C//DTD SVG 20010904//EN"
 "http://www.w3.org/TR/2001/REC-SVG-20010904/DTD/svg10.dtd">
<svg version="1.0" xmlns="http://www.w3.org/2000/svg"
 width="512.000000pt" height="512.000000pt" viewBox="0 0 512.000000 512.000000"
 preserveAspectRatio="xMidYMid meet">
<metadata>
Created by potrace 1.14, written by Peter Selinger 2001-2017
</metadata>
<g transform="translate(0.000000,512.000000) scale(0.100000,-0.100000)"
fill="#000000" stroke="none">
<path d="M2398 4949 c-324 -31 -637 -152 -896 -347 -41 -30 -78 -66 -83 -80
-12 -31 5 -78 32 -92 36 -20 66 -9 159 60 176 129 409 233 634 282 87 19 131
22 316 22 185 0 229 -3 316 -22 638 -139 1118 -618 1256 -1256 19 -86 22 -133
23 -311 0 -183 -3 -224 -23 -319 -121 -565 -524 -1023 -1057 -1202 -199 -66
-275 -78 -515 -78 -185 0 -229 3 -314 22 -647 144 -1121 617 -1258 1258 -20
96 -23 135 -22 319 0 177 4 226 22 309 52 233 152 458 282 636 84 114 91 154
29 186 -58 29 -88 4 -203 -166 -142 -209 -242 -483 -281 -762 l-6 -48 -93 0
c-123 0 -189 -20 -242 -74 -78 -77 -74 -11 -74 -1238 l0 -1088 -91 0 c-87 0
-92 -1 -121 -30 l-30 -30 4 -213 c4 -185 7 -219 25 -264 44 -111 139 -203 249
-241 45 -16 151 -17 1297 -20 l1248 -2 30 29 c35 36 37 61 5 98 l-24 28 -1254
5 -1255 5 -49 30 c-30 19 -60 49 -79 79 -30 49 -30 51 -33 208 l-3 158 800 0
801 0 0 -91 c0 -87 1 -92 29 -120 l29 -29 582 0 582 0 29 29 c28 28 29 33 29
120 l0 91 801 0 800 0 -3 -158 c-3 -157 -3 -159 -33 -208 -19 -30 -49 -60 -79
-79 l-49 -30 -695 -5 -694 -5 -24 -28 c-32 -37 -30 -62 6 -98 l29 -30 688 3
c771 4 738 1 845 78 33 23 73 65 96 100 59 87 72 159 72 380 l0 182 -29 29
-29 29 -896 0 c-635 0 -902 -3 -919 -11 -36 -16 -47 -50 -47 -144 l0 -85 -480
0 -480 0 0 85 c0 94 -11 128 -47 144 -17 8 -239 11 -748 11 l-725 0 0 1095 0
1096 25 24 c22 23 32 25 118 25 l95 0 7 -97 c25 -345 135 -659 322 -918 24
-32 43 -63 43 -67 0 -4 -60 -38 -134 -75 -93 -46 -138 -74 -145 -90 -6 -13
-11 -66 -11 -117 0 -87 -1 -93 -23 -103 -146 -67 -179 -274 -60 -384 49 -47
93 -63 163 -63 137 0 234 96 234 234 0 96 -49 175 -132 213 -21 10 -23 16 -20
74 l3 64 117 62 117 61 63 -60 c35 -33 93 -84 131 -113 l67 -53 0 -93 c0 -86
-2 -94 -21 -100 -33 -11 -88 -65 -112 -109 -29 -56 -30 -155 0 -211 45 -86
117 -129 213 -129 138 0 234 96 234 234 0 96 -49 176 -131 213 -18 8 -23 18
-23 49 0 21 2 38 4 38 2 0 46 -20 98 -45 182 -86 472 -165 608 -165 62 0 70
-7 70 -59 0 -40 -4 -49 -23 -58 -146 -67 -179 -274 -60 -384 49 -47 93 -63
163 -63 137 0 234 96 234 234 0 95 -49 175 -131 213 -19 9 -23 18 -23 58 0 52
8 59 70 59 142 0 440 83 623 173 l107 53 -1 -46 c0 -42 -3 -47 -47 -75 -27
-17 -59 -50 -76 -79 -55 -88 -37 -216 41 -287 49 -47 93 -63 163 -63 70 0 114
16 163 63 112 103 90 298 -43 373 l-40 23 0 100 1 100 46 35 c25 19 79 66 120
104 l75 70 119 -59 119 -59 -1 -66 0 -65 -47 -30 c-27 -17 -59 -50 -76 -79
-26 -41 -30 -58 -30 -115 1 -140 95 -235 234 -235 70 0 114 17 163 63 112 103
90 298 -43 373 l-40 23 0 95 c0 71 -4 101 -16 118 -8 13 -74 52 -145 87 -71
36 -129 68 -129 71 0 3 32 53 71 111 166 250 262 525 290 841 l12 132 94 0
c86 0 96 -2 118 -25 l25 -24 0 -980 c0 -697 3 -987 11 -1004 11 -25 47 -47 75
-47 9 0 29 13 45 29 l29 29 0 979 c0 1107 4 1050 -75 1128 -55 56 -117 75
-241 75 l-93 0 -6 48 c-73 528 -341 962 -774 1253 -241 162 -523 261 -821 288
-129 12 -186 12 -312 0z m-1383 -3374 c16 -15 25 -36 25 -55 0 -19 -9 -40 -25
-55 -15 -16 -36 -25 -55 -25 -19 0 -40 9 -55 25 -16 15 -25 36 -25 55 0 19 9
40 25 55 15 16 36 25 55 25 19 0 40 -9 55 -25z m3200 0 c50 -49 15 -135 -55
-135 -41 0 -80 39 -80 80 0 41 39 80 80 80 19 0 40 -9 55 -25z m-2540 -160
c50 -49 15 -135 -55 -135 -19 0 -40 9 -55 25 -16 15 -25 36 -25 55 0 19 9 40
25 55 15 16 36 25 55 25 19 0 40 -9 55 -25z m1900 0 c50 -49 15 -135 -55 -135
-41 0 -80 39 -80 80 0 41 39 80 80 80 19 0 40 -9 55 -25z m-960 -240 c50 -49
15 -135 -55 -135 -19 0 -40 9 -55 25 -16 15 -25 36 -25 55 0 19 9 40 25 55 15
16 36 25 55 25 19 0 40 -9 55 -25z"/>
<path d="M2450 4634 c-216 -26 -382 -73 -541 -155 -406 -209 -678 -576 -765
-1034 -24 -124 -23 -357 0 -490 52 -291 193 -561 402 -769 158 -158 358 -282
565 -350 296 -96 632 -95 917 5 164 58 398 194 438 254 32 48 -7 115 -66 115
-15 0 -54 -21 -93 -49 -137 -100 -340 -188 -512 -222 -45 -9 -133 -14 -250
-13 -168 1 -188 3 -299 32 -465 122 -815 478 -933 949 -25 98 -27 125 -27 293
0 168 2 195 27 293 148 588 651 987 1247 987 708 0 1280 -572 1280 -1280 0
-265 -82 -524 -232 -735 -34 -46 -58 -91 -58 -105 0 -59 67 -97 115 -66 67 44
213 306 264 474 48 156 64 261 64 427 1 308 -88 591 -264 840 -213 300 -559
517 -924 580 -92 16 -292 27 -355 19z"/>
<path d="M2282 4068 c-299 -198 -315 -216 -253 -279 16 -16 39 -29 50 -29 11
0 122 68 246 150 124 83 230 150 235 150 5 0 111 -67 235 -150 124 -82 235
-150 246 -150 24 0 79 52 79 74 0 8 -5 25 -11 38 -12 26 -505 358 -542 365
-18 4 -87 -37 -285 -169z"/>
<path d="M1804 3588 c-12 -5 -27 -21 -33 -34 -15 -35 -15 -674 0 -708 16 -35
61 -52 98 -37 44 19 51 47 51 214 l1 152 89 -176 c76 -149 95 -178 120 -189
38 -16 82 0 99 36 7 17 11 132 11 360 l0 336 -29 29 c-32 32 -47 35 -84 18
-40 -18 -47 -49 -48 -217 l0 -157 -92 182 c-102 203 -120 222 -183 191z"/>
<path d="M2444 3588 c-41 -19 -44 -44 -44 -388 0 -348 2 -369 47 -389 37 -17
52 -14 84 18 l29 29 0 131 0 131 91 0 c87 0 92 1 120 29 16 16 29 39 29 51 0
12 -13 35 -29 51 -28 28 -33 29 -120 29 l-91 0 0 80 0 80 131 0 131 0 29 29
c16 16 29 39 29 51 0 12 -13 35 -29 51 l-29 29 -179 -1 c-101 0 -187 -5 -199
-11z"/>
<path d="M3083 3588 c-32 -16 -48 -61 -34 -97 15 -35 48 -51 106 -51 l45 0 0
-285 c0 -301 3 -324 47 -344 37 -17 52 -14 84 18 l29 29 0 291 0 291 51 0 c43
0 55 5 80 29 16 16 29 39 29 51 0 12 -13 35 -29 51 l-29 29 -179 -1 c-103 0
-187 -5 -200 -11z"/>
<path d="M1483 3268 c-55 -27 -50 -114 8 -138 89 -37 151 99 63 139 -30 13
-42 13 -71 -1z"/>
<path d="M3563 3268 c-12 -6 -27 -24 -34 -41 -15 -36 1 -73 44 -97 24 -13 30
-13 54 0 43 24 59 61 44 97 -12 29 -47 54 -74 52 -7 0 -22 -5 -34 -11z"/>
<path d="M2043 2628 c-12 -6 -27 -23 -34 -39 -23 -56 -6 -72 266 -253 140 -93
265 -171 278 -173 18 -4 85 36 283 169 155 103 265 183 273 199 25 46 -18 109
-74 109 -8 0 -116 -67 -240 -150 -124 -82 -230 -150 -235 -150 -5 0 -111 68
-235 150 -124 83 -234 150 -243 149 -9 0 -27 -5 -39 -11z"/>
<path d="M589 611 c-16 -16 -29 -39 -29 -51 0 -28 52 -80 80 -80 28 0 80 52
80 80 0 28 -52 80 -80 80 -12 0 -35 -13 -51 -29z"/>
<path d="M909 611 c-16 -16 -29 -39 -29 -51 0 -28 52 -80 80 -80 28 0 80 52
80 80 0 28 -52 80 -80 80 -12 0 -35 -13 -51 -29z"/>
<path d="M4109 611 c-16 -16 -29 -39 -29 -51 0 -28 52 -80 80 -80 28 0 80 52
80 80 0 28 -52 80 -80 80 -12 0 -35 -13 -51 -29z"/>
<path d="M4429 611 c-16 -16 -29 -39 -29 -51 0 -28 52 -80 80 -80 28 0 80 52
80 80 0 28 -52 80 -80 80 -12 0 -35 -13 -51 -29z"/>
</g>
</svg>
